<!--?xml version="1.0" standalone="no"?-->
<svg id="sw-js-blob-svg" viewBox="0 0 100 100" xmlns="http://www.w3.org/2000/svg" version="1.1">
    <defs>
        <linearGradient id="sw-gradient" x1="0" x2="1" y1="1" y2="0">
            <stop id="stop1" stop-color="rgba(221, 186, 255, 1)" offset="0%"></stop>
            <stop id="stop2" stop-color="rgba(163.482, 115.297, 210.29, 1)" offset="100%"></stop>
        </linearGradient>
    </defs>
    <path fill="url(#sw-gradient)"
        d="M22.9,-26.4C28.8,-22.4,31.9,-14.3,33.7,-5.8C35.4,2.8,35.7,11.8,32.2,19.4C28.8,27,21.6,33.2,13.9,34.3C6.2,35.4,-1.9,31.5,-8.5,27.4C-15.1,23.3,-20.2,18.9,-24.6,13.3C-28.9,7.6,-32.5,0.6,-31.7,-5.9C-30.9,-12.4,-25.7,-18.4,-19.6,-22.2C-13.6,-26.1,-6.8,-27.9,0.9,-29C8.5,-30,17.1,-30.3,22.9,-26.4Z"
        width="100%" height="100%" transform="translate(50 50)" stroke-width="0"
        style="transition: 0.3s;"></path>
</svg>