<svg width="234" height="381" viewBox="0 0 234 381" fill="none" xmlns="http://www.w3.org/2000/svg">
<path opacity="0.6" d="M36.1591 344.242C36.1591 345.448 35.8015 346.626 35.1315 347.629C34.4616 348.632 33.5093 349.413 32.3952 349.875C31.2811 350.336 30.0552 350.457 28.8725 350.222C27.6897 349.986 26.6034 349.406 25.7507 348.553C24.898 347.7 24.3173 346.614 24.082 345.431C23.8467 344.248 23.9675 343.023 24.429 341.908C24.8904 340.794 25.6719 339.842 26.6746 339.172C27.6773 338.502 28.8561 338.145 30.062 338.145C31.679 338.145 33.2299 338.787 34.3733 339.93C35.5167 341.074 36.1591 342.625 36.1591 344.242Z" fill="#FFC727"/>
<path opacity="0.6" d="M43.5635 332.57C43.5635 333.158 43.3893 333.732 43.063 334.22C42.7366 334.709 42.2728 335.089 41.73 335.314C41.1873 335.539 40.5901 335.598 40.014 335.483C39.4378 335.369 38.9086 335.086 38.4932 334.67C38.0778 334.255 37.795 333.726 37.6804 333.15C37.5658 332.574 37.6246 331.976 37.8494 331.434C38.0742 330.891 38.4549 330.427 38.9433 330.101C39.4317 329.774 40.006 329.6 40.5934 329.6C41.3811 329.6 42.1366 329.913 42.6936 330.47C43.2506 331.027 43.5635 331.782 43.5635 332.57Z" fill="#FFC727"/>
<path opacity="0.6" d="M173.967 341.292C173.967 341.88 173.792 342.454 173.466 342.942C173.14 343.431 172.676 343.812 172.133 344.036C171.59 344.261 170.993 344.32 170.417 344.205C169.841 344.091 169.312 343.808 168.896 343.393C168.481 342.977 168.198 342.448 168.083 341.872C167.969 341.296 168.028 340.698 168.252 340.156C168.477 339.613 168.858 339.149 169.346 338.823C169.835 338.496 170.409 338.322 170.996 338.322C171.784 338.322 172.54 338.635 173.097 339.192C173.654 339.749 173.967 340.505 173.967 341.292Z" fill="#FFC727"/>
<path opacity="0.6" d="M233.442 368.411C233.442 368.998 233.268 369.572 232.942 370.061C232.615 370.549 232.151 370.93 231.609 371.155C231.066 371.379 230.469 371.438 229.893 371.324C229.316 371.209 228.787 370.926 228.372 370.511C227.957 370.095 227.674 369.566 227.559 368.99C227.444 368.414 227.503 367.817 227.728 367.274C227.953 366.731 228.334 366.267 228.822 365.941C229.31 365.615 229.885 365.44 230.472 365.44C231.26 365.44 232.015 365.753 232.572 366.31C233.129 366.867 233.442 367.623 233.442 368.411Z" fill="#FFC727"/>
<path opacity="0.6" d="M228.893 377.091C228.893 378.031 228.52 378.933 227.855 379.598C227.19 380.263 226.288 380.636 225.348 380.636H4.51271C4.03163 380.662 3.55028 380.59 3.09803 380.424C2.64577 380.258 2.2321 380.001 1.8823 379.67C1.5325 379.339 1.2539 378.94 1.0635 378.497C0.873102 378.054 0.774902 377.578 0.774902 377.096C0.774902 376.614 0.873102 376.137 1.0635 375.695C1.2539 375.252 1.5325 374.853 1.8823 374.522C2.2321 374.191 2.64577 373.934 3.09803 373.768C3.55028 373.602 4.03163 373.53 4.51271 373.556C4.79425 373.556 5.07493 373.587 5.34937 373.65C5.35279 372.264 5.76847 370.91 6.54355 369.761C7.31862 368.612 8.41804 367.719 9.70193 367.196C10.9858 366.674 12.3961 366.545 13.7534 366.827C15.1107 367.108 16.3536 367.787 17.324 368.776H17.3867C17.3867 368.348 17.324 367.908 17.324 367.469C17.3185 365.227 17.8843 363.02 18.9681 361.057C20.0518 359.095 21.6178 357.44 23.5183 356.25C25.4187 355.06 27.591 354.374 29.8301 354.257C32.0693 354.139 34.3014 354.594 36.3161 355.578C36.463 353.45 37.3283 351.435 38.7702 349.864C40.2122 348.292 42.1453 347.256 44.2527 346.927C46.3601 346.598 48.517 346.994 50.3697 348.051C52.2225 349.108 53.6614 350.762 54.4505 352.744C55.6342 350.853 57.2796 349.295 59.2318 348.215C61.1839 347.136 63.3787 346.571 65.6094 346.574C66.4551 346.579 67.2986 346.659 68.1299 346.814C67.9489 345.803 67.8579 344.777 67.8579 343.75C67.8561 340.333 68.8357 336.987 70.6803 334.11C72.525 331.233 75.157 328.946 78.2634 327.522C81.3698 326.098 84.82 325.596 88.2036 326.075C91.5871 326.555 94.7618 327.996 97.35 330.228C97.6468 329.65 98.0962 329.166 98.6495 328.826C99.2027 328.487 99.8385 328.306 100.487 328.303C100.954 328.306 101.415 328.399 101.847 328.575L105.162 196.143H124.615L127.93 328.575C128.361 328.399 128.823 328.306 129.289 328.303C129.938 328.307 130.573 328.489 131.126 328.828C131.679 329.167 132.129 329.651 132.427 330.228C135.015 327.996 138.19 326.555 141.573 326.075C144.957 325.596 148.407 326.098 151.513 327.522C154.62 328.946 157.252 331.233 159.096 334.11C160.941 336.987 161.921 340.333 161.919 343.75C161.919 344.777 161.828 345.803 161.647 346.814C162.478 346.659 163.322 346.579 164.167 346.574C166.398 346.572 168.592 347.137 170.544 348.217C172.496 349.296 174.142 350.854 175.326 352.744C176.085 350.715 177.52 349.009 179.39 347.915C181.259 346.82 183.449 346.405 185.59 346.738C187.731 347.071 189.691 348.132 191.14 349.743C192.589 351.353 193.439 353.414 193.544 355.578C195.555 354.596 197.782 354.141 200.017 354.256C202.252 354.371 204.421 355.053 206.32 356.236C208.219 357.42 209.786 359.067 210.873 361.023C211.961 362.979 212.533 365.179 212.536 367.417C212.536 367.856 212.536 368.295 212.474 368.724H212.536C213.507 367.734 214.75 367.056 216.107 366.774C217.464 366.493 218.875 366.622 220.159 367.144C221.442 367.667 222.542 368.559 223.317 369.709C224.092 370.858 224.508 372.212 224.511 373.598C224.785 373.534 225.066 373.503 225.348 373.504C225.817 373.504 226.281 373.597 226.714 373.777C227.147 373.958 227.54 374.223 227.87 374.557C228.199 374.89 228.46 375.286 228.635 375.721C228.811 376.156 228.899 376.622 228.893 377.091Z" fill="#FFC727"/>
<path d="M79.7279 112.143L42.6118 152.616C42.6118 152.616 79.7593 237.579 79.7279 238.164L74.4988 167.383L86.0028 155.534L79.7279 112.143Z" fill="#FFC727"/>
<path opacity="0.1" d="M79.7279 112.143L42.6118 152.616C42.6118 152.616 79.7593 237.579 79.7279 238.164L74.4988 167.383L86.0028 155.534L79.7279 112.143Z" fill="black"/>
<path opacity="0.1" d="M85.9192 155.524L78.086 163.629L63.2458 130.1L79.7279 112.133L85.9192 155.524Z" fill="black"/>
<path d="M150.404 112.143L187.52 152.616C187.52 152.616 150.362 237.579 150.404 238.164L155.686 167.383L144.182 155.534L150.404 112.143Z" fill="#FFC727"/>
<path opacity="0.1" d="M150.404 112.143L187.52 152.616C187.52 152.616 150.362 237.579 150.404 238.164L155.686 167.383L144.182 155.534L150.404 112.143Z" fill="black"/>
<path opacity="0.1" d="M144.203 155.524L152.046 163.629L166.886 130.1L150.404 112.133L144.203 155.524Z" fill="black"/>
<path d="M136.537 183.217H93.491C93.491 183.217 73.2125 146.969 75.6179 103.735C76.8311 82.1595 82.468 60.4379 89.2136 42.4602C98.5946 17.6011 110.14 0 115.108 0C120.076 0 131.632 17.622 140.95 42.4707C147.696 60.4483 153.301 82.2118 154.483 103.766C156.857 146.99 136.537 183.217 136.537 183.217Z" fill="#EBEBEB"/>
<path opacity="0.2" d="M140.835 98.171C140.833 103.082 139.375 107.882 136.644 111.964C133.914 116.046 130.035 119.226 125.497 121.103C120.958 122.98 115.966 123.469 111.15 122.508C106.334 121.547 101.911 119.18 98.4405 115.705C94.9701 112.231 92.6082 107.805 91.6534 102.987C90.6987 98.1703 91.1939 93.1781 93.0766 88.6424C94.9593 84.1067 98.1448 80.2312 102.23 77.5061C106.316 74.781 111.117 73.3286 116.028 73.3328C119.289 73.3328 122.517 73.9755 125.529 75.2241C128.54 76.4727 131.277 78.3028 133.581 80.6096C135.884 82.9165 137.711 85.6548 138.956 88.6682C140.201 91.6815 140.839 94.9106 140.835 98.171Z" fill="black"/>
<path d="M139.957 95.6401C139.954 100.549 138.497 105.348 135.769 109.429C133.04 113.51 129.163 116.69 124.628 118.568C120.092 120.447 115.101 120.938 110.286 119.981C105.472 119.023 101.049 116.66 97.5766 113.189C94.1046 109.719 91.7394 105.297 90.7799 100.482C89.8204 95.6678 90.3097 90.677 92.1859 86.1405C94.0622 81.6041 97.2412 77.7257 101.321 74.9956C105.401 72.2654 110.199 70.806 115.108 70.8019C118.371 70.7991 121.603 71.4396 124.618 72.6868C127.633 73.9339 130.373 75.7632 132.681 78.0701C134.989 80.3769 136.819 83.1161 138.068 86.1309C139.316 89.1457 139.958 92.377 139.957 95.6401Z" fill="#FFC727"/>
<path opacity="0.1" d="M139.957 95.6401C139.954 100.549 138.497 105.348 135.769 109.429C133.04 113.51 129.163 116.69 124.628 118.568C120.092 120.447 115.101 120.938 110.286 119.981C105.472 119.023 101.049 116.66 97.5766 113.189C94.1046 109.719 91.7394 105.297 90.7799 100.482C89.8204 95.6678 90.3097 90.677 92.1859 86.1405C94.0622 81.6041 97.2412 77.7257 101.321 74.9956C105.401 72.2654 110.199 70.806 115.108 70.8019C118.371 70.7991 121.603 71.4396 124.618 72.6868C127.633 73.9339 130.373 75.7632 132.681 78.0701C134.989 80.3769 136.819 83.1161 138.068 86.1309C139.316 89.1457 139.958 92.377 139.957 95.6401Z" fill="black"/>
<path d="M132.343 95.6192C132.349 99.0243 131.346 102.355 129.459 105.189C127.572 108.024 124.887 110.235 121.743 111.543C118.599 112.852 115.138 113.198 111.798 112.539C108.457 111.88 105.387 110.245 102.975 107.841C100.564 105.437 98.9196 102.372 98.2504 99.0333C97.5813 95.6946 97.9174 92.2324 99.2162 89.0848C100.515 85.9371 102.718 83.2453 105.547 81.3499C108.376 79.4545 111.703 78.4406 115.108 78.4364C119.672 78.4309 124.051 80.2377 127.283 83.4598C130.515 86.6819 132.335 91.0555 132.343 95.6192Z" fill="#455A64"/>
<g opacity="0.4">
<path d="M132.353 95.6192C132.358 97.7656 131.961 99.8938 131.182 101.894L121.383 111.672C119.383 112.45 117.254 112.843 115.108 112.833C113.552 112.836 112.003 112.621 110.506 112.195L131.716 90.9862C132.139 92.494 132.354 94.0529 132.353 95.6192Z" fill="white"/>
<path d="M117.66 78.5933L98.1031 98.1501C97.9824 97.3153 97.9195 96.4731 97.9148 95.6296C97.9231 91.0723 99.7372 86.7039 102.96 83.4813C106.182 80.2588 110.551 78.4447 115.108 78.4364C115.961 78.4288 116.814 78.4812 117.66 78.5933Z" fill="white"/>
<path d="M130.199 87.284L106.804 110.679C106.349 110.437 105.909 110.168 105.486 109.874L129.383 85.9663C129.676 86.3846 129.938 86.803 130.199 87.284Z" fill="white"/>
</g>
<path d="M140.992 42.4707H89.2554C98.5945 17.6011 110.14 0 115.108 0C120.076 0 131.674 17.622 140.992 42.4707Z" fill="#FFC727"/>
<g opacity="0.1">
<path d="M98.1657 37.0952C98.1657 37.3827 98.0804 37.6638 97.9207 37.9028C97.761 38.1419 97.5339 38.3282 97.2683 38.4382C97.0027 38.5483 96.7104 38.577 96.4284 38.521C96.1464 38.4649 95.8874 38.3264 95.6841 38.1231C95.4808 37.9198 95.3423 37.6608 95.2862 37.3788C95.2301 37.0968 95.2589 36.8045 95.369 36.5389C95.479 36.2733 95.6653 36.0462 95.9044 35.8865C96.1434 35.7268 96.4245 35.6415 96.712 35.6415C96.9033 35.6401 97.0929 35.6768 97.2699 35.7493C97.4469 35.8219 97.6077 35.9289 97.743 36.0642C97.8783 36.1995 97.9853 36.3603 98.0579 36.5373C98.1304 36.7143 98.1671 36.9039 98.1657 37.0952Z" fill="black"/>
<path d="M107.369 37.0952C107.371 37.3836 107.287 37.6661 107.128 37.9068C106.969 38.1474 106.743 38.3354 106.476 38.4467C106.21 38.558 105.917 38.5877 105.634 38.5319C105.351 38.4762 105.091 38.3375 104.887 38.1336C104.684 37.9297 104.545 37.6697 104.489 37.3867C104.433 37.1038 104.463 36.8106 104.574 36.5446C104.686 36.2785 104.874 36.0516 105.114 35.8926C105.355 35.7337 105.637 35.6499 105.926 35.652C106.308 35.6548 106.673 35.8077 106.943 36.0778C107.213 36.3478 107.366 36.7133 107.369 37.0952Z" fill="black"/>
<path d="M116.572 37.1056C116.573 37.2978 116.537 37.4883 116.463 37.666C116.39 37.8437 116.282 38.005 116.146 38.1404C116.009 38.2758 115.847 38.3826 115.669 38.4546C115.491 38.5265 115.3 38.5621 115.108 38.5593C114.82 38.5614 114.538 38.4779 114.297 38.3194C114.057 38.161 113.869 37.9347 113.757 37.6692C113.646 37.4038 113.616 37.1112 113.67 36.8285C113.725 36.5458 113.863 36.2858 114.066 36.0815C114.269 35.8771 114.528 35.7376 114.81 35.6807C115.092 35.6237 115.385 35.6519 115.651 35.7616C115.918 35.8713 116.145 36.0576 116.305 36.2969C116.466 36.5362 116.551 36.8177 116.551 37.1056H116.572Z" fill="black"/>
<path d="M125.775 37.1162C125.775 37.4042 125.69 37.6856 125.53 37.9249C125.369 38.1642 125.142 38.3505 124.875 38.4602C124.609 38.5699 124.316 38.5981 124.034 38.5411C123.752 38.4842 123.493 38.3447 123.29 38.1404C123.087 37.936 122.949 37.676 122.895 37.3933C122.84 37.1107 122.87 36.8181 122.982 36.5526C123.093 36.2872 123.281 36.0609 123.522 35.9024C123.762 35.7439 124.044 35.6604 124.332 35.6625C124.522 35.6625 124.711 35.7002 124.887 35.7734C125.063 35.8465 125.222 35.9538 125.356 36.0889C125.49 36.224 125.597 36.3844 125.668 36.5607C125.74 36.737 125.777 36.9258 125.775 37.1162Z" fill="black"/>
<path d="M134.979 37.1161C134.981 37.4045 134.897 37.687 134.738 37.9277C134.579 38.1683 134.352 38.3562 134.086 38.4676C133.82 38.5789 133.527 38.6086 133.244 38.5528C132.961 38.497 132.701 38.3584 132.497 38.1545C132.293 37.9505 132.154 37.6905 132.099 37.4076C132.043 37.1246 132.073 36.8315 132.184 36.5654C132.295 36.2994 132.483 36.0725 132.724 35.9135C132.965 35.7546 133.247 35.6708 133.535 35.6729C133.918 35.6729 134.285 35.8249 134.556 36.0956C134.827 36.3663 134.979 36.7333 134.979 37.1161Z" fill="black"/>
</g>
<path d="M98.1029 176.576C98.1029 176.864 98.0174 177.145 97.8572 177.385C97.697 177.624 97.4693 177.81 97.2031 177.92C96.9369 178.03 96.644 178.058 96.3618 178.001C96.0795 177.944 95.8205 177.805 95.6176 177.6C95.4148 177.396 95.2771 177.136 95.2222 176.853C95.1673 176.571 95.1976 176.278 95.3092 176.012C95.4209 175.747 95.6088 175.521 95.8492 175.362C96.0897 175.204 96.3718 175.12 96.6597 175.122C96.8501 175.122 97.0386 175.16 97.2144 175.233C97.3902 175.306 97.5498 175.414 97.6839 175.549C97.8181 175.684 97.9242 175.844 97.9961 176.021C98.068 176.197 98.1043 176.386 98.1029 176.576Z" fill="#FFC727"/>
<path d="M107.306 176.576C107.308 176.864 107.224 177.147 107.065 177.387C106.906 177.628 106.68 177.816 106.413 177.927C106.147 178.039 105.854 178.068 105.571 178.013C105.288 177.957 105.028 177.818 104.824 177.614C104.621 177.41 104.482 177.15 104.426 176.867C104.37 176.584 104.4 176.291 104.511 176.025C104.623 175.759 104.811 175.532 105.051 175.373C105.292 175.214 105.574 175.131 105.863 175.133C106.246 175.133 106.613 175.285 106.883 175.555C107.154 175.826 107.306 176.193 107.306 176.576Z" fill="#FFC727"/>
<path d="M116.509 176.586C116.509 176.874 116.424 177.156 116.263 177.395C116.103 177.634 115.876 177.821 115.609 177.93C115.343 178.04 115.05 178.068 114.768 178.011C114.486 177.954 114.227 177.815 114.024 177.611C113.821 177.406 113.683 177.146 113.628 176.864C113.574 176.581 113.604 176.288 113.715 176.023C113.827 175.757 114.015 175.531 114.256 175.373C114.496 175.214 114.778 175.131 115.066 175.133C115.256 175.133 115.445 175.17 115.621 175.244C115.796 175.317 115.956 175.424 116.09 175.559C116.224 175.694 116.33 175.855 116.402 176.031C116.474 176.207 116.511 176.396 116.509 176.586Z" fill="#FFC727"/>
<path d="M125.723 176.586C125.725 176.874 125.642 177.156 125.483 177.397C125.325 177.637 125.098 177.825 124.833 177.937C124.567 178.049 124.275 178.079 123.992 178.024C123.709 177.969 123.45 177.831 123.245 177.628C123.041 177.426 122.901 177.167 122.844 176.884C122.787 176.602 122.816 176.309 122.925 176.043C123.035 175.777 123.221 175.549 123.461 175.389C123.7 175.229 123.981 175.143 124.269 175.143C124.653 175.143 125.021 175.295 125.294 175.565C125.566 175.836 125.72 176.203 125.723 176.586Z" fill="#FFC727"/>
<path d="M134.979 176.597C134.996 176.798 134.971 176.999 134.906 177.19C134.841 177.38 134.737 177.555 134.601 177.704C134.465 177.852 134.299 177.97 134.115 178.051C133.93 178.132 133.731 178.174 133.53 178.174C133.329 178.174 133.13 178.132 132.945 178.051C132.761 177.97 132.596 177.852 132.459 177.704C132.323 177.555 132.219 177.38 132.154 177.19C132.089 176.999 132.065 176.798 132.082 176.597C132.08 176.407 132.117 176.219 132.189 176.043C132.261 175.867 132.367 175.708 132.501 175.573C132.636 175.439 132.795 175.333 132.971 175.261C133.147 175.189 133.335 175.152 133.525 175.154C133.715 175.152 133.904 175.189 134.08 175.261C134.257 175.332 134.417 175.439 134.552 175.573C134.687 175.707 134.795 175.866 134.868 176.042C134.941 176.218 134.979 176.407 134.979 176.597Z" fill="#FFC727"/>
<path d="M132.563 196.154L97.5592 196.133L95.9277 183.196L134.215 183.227L132.563 196.154Z" fill="#FFC727"/>
<path opacity="0.1" d="M132.563 196.154L97.5592 196.133L95.9277 183.196L134.215 183.227L132.563 196.154Z" fill="black"/>
<path opacity="0.1" d="M134.215 183.227L133.399 189.523L96.5448 188.143L95.9277 183.196L134.215 183.227Z" fill="black"/>
<path d="M169.815 349.753L165.475 350.558L164.502 355.129L163.529 350.558L159.2 349.753L163.519 348.697L164.502 344.378L165.496 348.697L169.815 349.753Z" fill="#FCFCFC"/>
<path d="M127.616 313.087L123.276 313.882L122.313 318.462L121.341 313.882L117.001 313.087L121.32 312.03L122.313 307.711L123.297 312.03L127.616 313.087Z" fill="#FCFCFC"/>
<path d="M113.1 204.332L108.76 205.137L107.787 209.708L106.815 205.137L102.485 204.332L106.804 203.276L107.787 198.957L108.781 203.276L113.1 204.332Z" fill="#FCFCFC"/>
<path d="M64.5741 358.465L62.1582 358.914L61.6144 361.466L61.0706 358.914L58.6443 358.465L61.0601 357.868L61.6144 355.453L62.1687 357.868L64.5741 358.465Z" fill="#FCFCFC"/>
<path d="M195.029 366.089L192.603 366.538L192.07 369.09L191.526 366.538L189.1 366.089L191.515 365.492L192.07 363.077L192.614 365.492L195.029 366.089Z" fill="#FCFCFC"/>
<path d="M31.2125 375.041L28.7862 375.491L28.2424 378.053L27.709 375.491L25.2827 375.041L27.6881 374.455L28.2424 372.04L28.7967 374.455L31.2125 375.041Z" fill="#FCFCFC"/>
<path d="M136.673 372.918L134.246 373.368L133.713 375.92L133.169 373.368L130.743 372.918L133.159 372.322L133.713 369.917L134.257 372.322L136.673 372.918Z" fill="#FCFCFC"/>
<path d="M118.925 306.132L116.499 306.582L115.955 309.134L115.411 306.582L112.995 306.132L115.401 305.546L115.955 303.131L116.509 305.546L118.925 306.132Z" fill="#FCFCFC"/>
<path d="M125.441 239.953L123.014 240.402L122.471 242.954L121.927 240.402L119.511 239.953L121.916 239.367L122.471 236.951L123.025 239.367L125.441 239.953Z" fill="#FCFCFC"/>
<path d="M200.771 371.611C200.599 371.632 200.44 371.715 200.325 371.845C200.21 371.975 200.146 372.143 200.146 372.317C200.146 372.49 200.21 372.658 200.325 372.788C200.44 372.918 200.599 373.002 200.771 373.023C200.943 373.002 201.102 372.918 201.217 372.788C201.333 372.658 201.396 372.49 201.396 372.317C201.396 372.143 201.333 371.975 201.217 371.845C201.102 371.715 200.943 371.632 200.771 371.611Z" fill="#FCFCFC"/>
<path d="M109.544 297.263C109.372 297.284 109.213 297.368 109.098 297.498C108.983 297.628 108.919 297.796 108.919 297.969C108.919 298.143 108.983 298.311 109.098 298.441C109.213 298.571 109.372 298.654 109.544 298.675C109.717 298.654 109.875 298.571 109.991 298.441C110.106 298.311 110.169 298.143 110.169 297.969C110.169 297.796 110.106 297.628 109.991 297.498C109.875 297.368 109.717 297.284 109.544 297.263Z" fill="#FCFCFC"/>
<path d="M121.247 209.007C121.061 209.007 120.883 209.081 120.751 209.212C120.62 209.343 120.546 209.522 120.546 209.708C120.546 209.893 120.62 210.072 120.751 210.203C120.883 210.334 121.061 210.408 121.247 210.408C121.433 210.408 121.611 210.334 121.742 210.203C121.874 210.072 121.948 209.893 121.948 209.708C121.948 209.522 121.874 209.343 121.742 209.212C121.611 209.081 121.433 209.007 121.247 209.007Z" fill="#FCFCFC"/>
<path d="M49.577 375.041C49.4046 375.062 49.2458 375.145 49.1306 375.276C49.0155 375.406 48.9519 375.573 48.9519 375.747C48.9519 375.921 49.0155 376.088 49.1306 376.218C49.2458 376.348 49.4046 376.432 49.577 376.453C49.7494 376.432 49.9082 376.348 50.0233 376.218C50.1385 376.088 50.202 375.921 50.202 375.747C50.202 375.573 50.1385 375.406 50.0233 375.276C49.9082 375.145 49.7494 375.062 49.577 375.041Z" fill="#FCFCFC"/>
<path d="M94.1184 365.388C93.9326 365.388 93.7544 365.462 93.623 365.593C93.4916 365.725 93.4177 365.903 93.4177 366.089C93.4177 366.274 93.4916 366.453 93.623 366.584C93.7544 366.716 93.9326 366.789 94.1184 366.789C94.3043 366.789 94.4825 366.716 94.6139 366.584C94.7453 366.453 94.8191 366.274 94.8191 366.089C94.8191 365.903 94.7453 365.725 94.6139 365.593C94.4825 365.462 94.3043 365.388 94.1184 365.388Z" fill="#FCFCFC"/>
<path d="M183.159 358.977C183.04 358.995 182.931 359.054 182.852 359.146C182.773 359.237 182.73 359.353 182.73 359.474C182.73 359.595 182.773 359.711 182.852 359.802C182.931 359.894 183.04 359.953 183.159 359.971C183.279 359.953 183.388 359.894 183.467 359.802C183.546 359.711 183.589 359.595 183.589 359.474C183.589 359.353 183.546 359.237 183.467 359.146C183.388 359.054 183.279 358.995 183.159 358.977Z" fill="#FCFCFC"/>
<path d="M121.728 351.521C121.609 351.538 121.5 351.598 121.421 351.689C121.342 351.78 121.298 351.897 121.298 352.017C121.298 352.138 121.342 352.254 121.421 352.346C121.5 352.437 121.609 352.497 121.728 352.514C121.847 352.497 121.957 352.437 122.035 352.346C122.114 352.254 122.158 352.138 122.158 352.017C122.158 351.897 122.114 351.78 122.035 351.689C121.957 351.598 121.847 351.538 121.728 351.521Z" fill="#FCFCFC"/>
<path d="M113.016 225.405C112.897 225.423 112.788 225.482 112.709 225.574C112.63 225.665 112.587 225.781 112.587 225.902C112.587 226.023 112.63 226.139 112.709 226.23C112.788 226.322 112.897 226.381 113.016 226.399C113.136 226.381 113.245 226.322 113.324 226.23C113.403 226.139 113.446 226.023 113.446 225.902C113.446 225.781 113.403 225.665 113.324 225.574C113.245 225.482 113.136 225.423 113.016 225.405Z" fill="#FCFCFC"/>
<path d="M76.7579 341.805C76.6385 341.822 76.5294 341.882 76.4505 341.973C76.3716 342.065 76.3281 342.181 76.3281 342.302C76.3281 342.422 76.3716 342.539 76.4505 342.63C76.5294 342.721 76.6385 342.781 76.7579 342.798C76.8772 342.781 76.9863 342.721 77.0652 342.63C77.1441 342.539 77.1876 342.422 77.1876 342.302C77.1876 342.181 77.1441 342.065 77.0652 341.973C76.9863 341.882 76.8772 341.822 76.7579 341.805Z" fill="#FCFCFC"/>
<path d="M153.699 343.834C153.341 343.834 152.998 343.976 152.745 344.229C152.492 344.482 152.35 344.825 152.35 345.183C152.35 345.541 152.492 345.884 152.745 346.137C152.998 346.39 153.341 346.532 153.699 346.532C154.057 346.532 154.4 346.39 154.653 346.137C154.906 345.884 155.048 345.541 155.048 345.183C155.048 344.825 154.906 344.482 154.653 344.229C154.4 343.976 154.057 343.834 153.699 343.834Z" fill="#FCFCFC"/>
<path d="M83.1267 337.235C82.7689 337.235 82.4257 337.377 82.1727 337.63C81.9197 337.883 81.7776 338.226 81.7776 338.584C81.7776 338.942 81.9197 339.285 82.1727 339.538C82.4257 339.791 82.7689 339.933 83.1267 339.933C83.4845 339.933 83.8276 339.791 84.0807 339.538C84.3337 339.285 84.4758 338.942 84.4758 338.584C84.4758 338.226 84.3337 337.883 84.0807 337.63C83.8276 337.377 83.4845 337.235 83.1267 337.235Z" fill="#FCFCFC"/>
<path d="M115.955 255.901C115.597 255.901 115.254 256.044 115.001 256.297C114.748 256.55 114.606 256.893 114.606 257.25C114.606 257.608 114.748 257.951 115.001 258.204C115.254 258.457 115.597 258.6 115.955 258.6C116.313 258.6 116.656 258.457 116.909 258.204C117.162 257.951 117.304 257.608 117.304 257.25C117.304 256.893 117.162 256.55 116.909 256.297C116.656 256.044 116.313 255.901 115.955 255.901Z" fill="#FCFCFC"/>
</svg>
