<svg width="113" height="111" viewBox="0 0 113 111" fill="none" xmlns="http://www.w3.org/2000/svg">
<path d="M112.65 56.2524C112.651 57.1409 112.418 58.014 111.973 58.783C111.528 59.552 110.887 60.1896 110.116 60.6309L99.1477 66.9319C98.5168 67.2953 97.8148 67.5183 97.0898 67.5854C96.3648 67.6525 95.6339 67.5623 94.947 67.3209C94.8147 68.0096 94.5385 68.6626 94.1363 69.2371C93.7341 69.8117 93.2151 70.2947 92.6133 70.6547L92.2132 70.8881L81.6003 77.0224L81.3003 77.1891C80.6773 77.4907 79.9996 77.663 79.3082 77.6955C78.6168 77.7279 77.926 77.6199 77.2774 77.378C77.1601 78.1167 76.8785 78.8197 76.4534 79.4351C76.0284 80.0506 75.4707 80.5628 74.8215 80.9342L64.8198 86.7129C66.6701 89.8001 67.7064 93.3064 67.8314 96.9035C67.8314 100.537 66.3756 102.938 64.1308 103.827C63.7625 104.117 63.3546 104.353 62.9195 104.527C62.5519 104.824 62.1392 105.06 61.6971 105.227C60.8872 105.7 60.076 106.17 59.2634 106.638C58.89 106.927 58.4787 107.162 58.041 107.338C57.6731 107.629 57.2651 107.865 56.8296 108.039C56.4563 108.327 56.0449 108.563 55.6072 108.739C55.243 109.035 54.8341 109.271 54.3959 109.439C52.4956 110.939 49.7062 110.995 46.5502 109.172C40.8492 105.838 36.2152 97.8703 36.2152 91.2581C36.2152 87.9242 37.3931 85.6127 39.2712 84.6459C39.4732 84.5511 39.6811 84.4694 39.8935 84.4014C40.0812 84.2338 40.2818 84.0815 40.4937 83.9458C40.6926 83.8528 40.8967 83.7712 41.1049 83.7013C41.2896 83.5303 41.4906 83.3777 41.705 83.2457C41.9048 83.1461 42.1131 83.0643 42.3273 83.0012C42.5147 82.8301 42.7154 82.674 42.9274 82.5344C43.1266 82.4452 43.3306 82.3673 43.5386 82.3011C43.726 82.1299 43.9267 81.9739 44.1387 81.8343C44.3389 81.7384 44.5471 81.6603 44.761 81.601C44.9456 81.4265 45.1466 81.2702 45.3611 81.1342C45.5601 81.0413 45.7641 80.9597 45.9723 80.8897C46.1599 80.7221 46.3606 80.5698 46.5724 80.4341C46.7744 80.3393 46.9823 80.2576 47.1947 80.1896C47.3824 80.022 47.583 79.8697 47.7949 79.734C47.9938 79.6411 48.1979 79.5594 48.406 79.4895C48.5942 79.3645 48.791 79.253 48.995 79.1561C49.1978 79.0632 49.4055 78.9815 49.6174 78.9116C49.8021 78.7406 50.0031 78.588 50.2175 78.456C49.9368 78.1931 49.6399 77.9481 49.3284 77.7226L48.4172 77.0669L47.517 76.4668C47.1948 76.2556 46.8725 76.0556 46.5391 75.8667C45.4747 75.2529 44.3593 74.7324 43.2052 74.3109C42.8496 74.1775 42.494 74.0553 42.0939 73.9553C40.8057 73.5527 39.4651 73.343 38.1155 73.3329H37.4821H37.0153C36.7782 73.3329 36.5449 73.3329 36.3152 73.3329C35.1913 73.3454 34.0843 73.0587 33.1079 72.5021C32.1314 71.9455 31.3206 71.1392 30.7587 70.1658L30.492 69.7101C30.492 69.7101 32.9369 61.2865 32.9591 61.2532L40.7381 56.5858C42.2745 55.4985 43.9737 54.662 45.7723 54.1076C46.0762 54.0414 46.3844 53.9969 46.6946 53.9742H46.9503C47.3461 53.9464 47.7435 53.9464 48.1393 53.9742H48.5616H48.6727C49.4535 54.0683 50.2262 54.2206 50.9843 54.4299C53.8405 55.2677 56.5723 56.4823 59.1078 58.0416C59.7079 58.3861 60.2191 58.7417 60.8303 59.1529C59.8635 58.2749 58.8744 57.4526 57.8632 56.6636C57.4075 56.2968 56.9519 55.9412 56.4851 55.5523C56.4226 55.4874 56.3516 55.4314 56.274 55.3856C55.8739 55.0744 55.4628 54.7744 55.0405 54.4743C54.2959 53.9409 53.5402 53.363 52.7623 52.8963L51.7399 52.2295C51.2176 51.885 50.6286 51.5516 50.1508 51.2293C49.6729 50.9071 48.8283 50.4292 48.1616 50.0403C41.9717 46.473 36.3596 44.9617 31.281 44.9617H30.2253L29.0362 45.0394C28.7362 45.0394 28.4472 45.0394 28.1472 45.1395L27.5249 45.2284L26.9692 45.3173L26.1357 45.4728L25.1689 45.7062C24.8244 45.7951 24.4799 45.884 24.1354 45.9952C23.7909 46.1063 23.5575 46.173 23.2797 46.2619C22.5862 46.5019 21.8578 46.6258 21.1238 46.6286C20.0004 46.6388 18.8943 46.3511 17.9183 45.7947C16.9422 45.2384 16.131 44.4333 15.5674 43.4614L15.4451 43.2503L17.3454 35.1156C17.3454 35.1156 17.3454 35.1156 17.4788 35.0045C18.3567 34.3821 22.6908 31.3705 23.0353 31.1705C25.0751 29.9752 27.2172 28.9637 29.4363 28.1478C30.3475 27.7996 31.281 27.4884 32.2368 27.2143L33.5036 26.8698C33.9259 26.7698 34.3482 26.6587 34.7816 26.5698C35.6484 26.3808 36.5152 26.2253 37.4043 26.0919L38.5156 25.9363H38.7711L40.1047 25.8141C40.117 25.8089 40.1302 25.8062 40.1436 25.8062C40.157 25.8062 40.1702 25.8089 40.1825 25.8141L41.416 25.7363C41.5306 25.7251 41.6459 25.7251 41.7605 25.7363C43.2658 25.6924 44.7723 25.7369 46.2724 25.8697C48.2266 26.0603 50.1627 26.4059 52.0622 26.9032C45.3447 23.1368 37.8912 20.8697 30.2142 20.2576C27.4529 20.0806 24.6811 20.1624 21.9351 20.5021C21.2461 20.5799 20.546 20.6799 19.8681 20.8022H19.6569C19.2346 20.8688 18.8346 20.9466 18.4234 21.0466C17.7233 21.1911 17.0343 21.3467 16.3453 21.5245C15.6563 21.7023 14.9895 21.9023 14.3227 22.1135C13.8337 22.2542 13.3559 22.4098 12.8892 22.5802C12.2779 22.7914 11.6667 23.0247 11.0777 23.2581C10.2308 23.6028 9.32508 23.7802 8.41065 23.7804C7.10594 23.7727 5.82609 23.4228 4.69894 22.7656C3.57179 22.1084 2.63681 21.167 1.98738 20.0354L1.83179 19.7687C1.92069 19.3464 3.95436 10.3894 3.95436 10.3894H4.00991L4.15438 10.2782L4.2544 10.2004C5.27678 9.44475 8.58846 7.01102 8.93296 6.86655C11.3466 5.45988 13.8744 4.25915 16.4897 3.27708C17.9715 2.72143 19.4532 2.23247 20.9349 1.81017L22.5463 1.39899L24.2243 1.02116C25.9476 0.677792 27.6871 0.421865 29.4363 0.254364C30.0253 0.187686 30.6143 0.143235 31.2144 0.0987836C31.8145 0.0543319 32.4145 0.032104 33.0146 0.00987815C33.6147 -0.0123477 34.226 0.00987815 34.8372 0.00987815C44.661 0.00987815 55.4405 2.6881 66.5868 9.12248C70.9319 11.634 74.8437 14.0677 78.4443 16.5459C78.8888 16.846 79.3222 17.146 79.7445 17.4572C80.8558 18.2573 81.9671 19.0797 83.0784 19.902L84.5342 21.0133C85.6455 21.8579 86.6567 22.7136 87.6791 23.6026C88.0903 23.9471 88.4793 24.2916 88.8793 24.6472L89.4794 25.1806L90.7463 26.3475C93.2794 28.7213 95.6797 31.2329 97.9364 33.871L98.8032 34.9045C99.2477 35.4268 99.6811 36.0158 100.114 36.5047C100.792 37.3382 101.47 38.205 102.137 39.094L103.304 40.6498C104.126 41.7611 104.949 42.8724 105.771 44.1393C106.171 44.7283 106.582 45.3173 106.982 45.9285C107.382 46.5397 107.794 47.1509 108.205 47.7843C108.616 48.4178 109.027 49.0512 109.427 49.6958C110.249 50.996 111.083 52.3295 111.916 53.7186C112.383 54.4826 112.636 55.3575 112.65 56.2524Z" fill="#FFDE76"/>
<g opacity="0.2">
<path d="M112.65 56.2524C112.651 57.1409 112.418 58.014 111.973 58.783C111.528 59.552 110.887 60.1896 110.116 60.6309L99.1477 66.9319C98.5168 67.2953 97.8148 67.5183 97.0898 67.5854C96.3648 67.6525 95.6339 67.5623 94.947 67.3209C94.8147 68.0096 94.5385 68.6626 94.1363 69.2371C93.7341 69.8117 93.2151 70.2947 92.6133 70.6547L92.2132 70.8881L81.6003 77.0224L81.3003 77.1891C80.6773 77.4907 79.9996 77.663 79.3082 77.6955C78.6168 77.7279 77.926 77.6199 77.2774 77.378C77.1601 78.1167 76.8785 78.8197 76.4534 79.4351C76.0284 80.0506 75.4707 80.5628 74.8215 80.9342L64.8198 86.7129C66.6701 89.8001 67.7064 93.3064 67.8314 96.9035C67.8314 100.537 66.3756 102.938 64.1308 103.827C63.7625 104.117 63.3546 104.353 62.9195 104.527C62.5519 104.824 62.1392 105.06 61.6971 105.227C60.8872 105.7 60.076 106.17 59.2634 106.638C58.89 106.927 58.4787 107.162 58.041 107.338C57.6731 107.629 57.2651 107.865 56.8296 108.039C56.4563 108.327 56.0449 108.563 55.6072 108.739C55.243 109.035 54.8341 109.271 54.3959 109.439C52.4956 110.939 49.7062 110.995 46.5502 109.172C40.8492 105.838 36.2152 97.8703 36.2152 91.2581C36.2152 87.9242 37.3931 85.6127 39.2712 84.6459C39.4732 84.5511 39.6811 84.4694 39.8935 84.4014C40.0812 84.2338 40.2818 84.0815 40.4937 83.9458C40.6926 83.8528 40.8967 83.7712 41.1049 83.7013C41.2896 83.5303 41.4906 83.3777 41.705 83.2457C41.9048 83.1461 42.1131 83.0643 42.3273 83.0012C42.5147 82.8301 42.7154 82.674 42.9274 82.5344C43.1266 82.4452 43.3306 82.3673 43.5386 82.3011C43.726 82.1299 43.9267 81.9739 44.1387 81.8343C44.3389 81.7384 44.5471 81.6603 44.761 81.601C44.9456 81.4265 45.1466 81.2702 45.3611 81.1342C45.5601 81.0413 45.7641 80.9597 45.9723 80.8897C46.1599 80.7221 46.3606 80.5698 46.5724 80.4341C46.7744 80.3393 46.9823 80.2576 47.1947 80.1896C47.3824 80.022 47.583 79.8697 47.7949 79.734C47.9938 79.6411 48.1979 79.5594 48.406 79.4895C48.5942 79.3645 48.791 79.253 48.995 79.1561C49.1978 79.0632 49.4055 78.9815 49.6174 78.9116C49.8021 78.7406 50.0031 78.588 50.2175 78.456C49.9368 78.1931 49.6399 77.9481 49.3284 77.7226L48.4172 77.0669L47.517 76.4668C47.1948 76.2556 46.8725 76.0556 46.5391 75.8667C45.4747 75.2529 44.3593 74.7324 43.2052 74.3109C42.8496 74.1775 42.494 74.0553 42.0939 73.9553C40.8057 73.5527 39.4651 73.343 38.1155 73.3329H37.4821H37.0153C36.7782 73.3329 36.5449 73.3329 36.3152 73.3329C35.1913 73.3454 34.0843 73.0587 33.1079 72.5021C32.1314 71.9455 31.3206 71.1392 30.7587 70.1658L30.492 69.7101C30.492 69.7101 32.9369 61.2865 32.9591 61.2532L40.7381 56.5858C42.2745 55.4985 43.9737 54.662 45.7723 54.1076C46.0762 54.0414 46.3844 53.9969 46.6946 53.9742H46.9503C47.3461 53.9464 47.7435 53.9464 48.1393 53.9742H48.5616H48.6727C49.4535 54.0683 50.2262 54.2206 50.9843 54.4299C53.8405 55.2677 56.5723 56.4823 59.1078 58.0416C59.7079 58.3861 60.2191 58.7417 60.8303 59.1529C59.8635 58.2749 58.8744 57.4526 57.8632 56.6636C57.4075 56.2968 56.9519 55.9412 56.4851 55.5523C56.4226 55.4874 56.3516 55.4314 56.274 55.3856C55.8739 55.0744 55.4628 54.7744 55.0405 54.4743C54.2959 53.9409 53.5402 53.363 52.7623 52.8963L51.7399 52.2295C51.2176 51.885 50.6286 51.5516 50.1508 51.2293C49.6729 50.9071 48.8283 50.4292 48.1616 50.0403C41.9717 46.473 36.3596 44.9617 31.281 44.9617H30.2253L29.0362 45.0394C28.7362 45.0394 28.4472 45.0394 28.1472 45.1395L27.5249 45.2284L26.9692 45.3173L26.1357 45.4728L25.1689 45.7062C24.8244 45.7951 24.4799 45.884 24.1354 45.9952C23.7909 46.1063 23.5575 46.173 23.2797 46.2619C22.5862 46.5019 21.8578 46.6258 21.1238 46.6286C20.0004 46.6388 18.8943 46.3511 17.9183 45.7947C16.9422 45.2384 16.131 44.4333 15.5674 43.4614L15.4451 43.2503L17.3454 35.1156C17.3454 35.1156 17.3454 35.1156 17.4788 35.0045C18.3567 34.3821 22.6908 31.3705 23.0353 31.1705C25.0751 29.9752 27.2172 28.9637 29.4363 28.1478C30.3475 27.7996 31.281 27.4884 32.2368 27.2143L33.5036 26.8698C33.9259 26.7698 34.3482 26.6587 34.7816 26.5698C35.6484 26.3808 36.5152 26.2253 37.4043 26.0919L38.5156 25.9363H38.7711L40.1047 25.8141C40.117 25.8089 40.1302 25.8062 40.1436 25.8062C40.157 25.8062 40.1702 25.8089 40.1825 25.8141L41.416 25.7363C41.5306 25.7251 41.6459 25.7251 41.7605 25.7363C43.2658 25.6924 44.7723 25.7369 46.2724 25.8697C48.2266 26.0603 50.1627 26.4059 52.0622 26.9032C45.3447 23.1368 37.8912 20.8697 30.2142 20.2576C27.4529 20.0806 24.6811 20.1624 21.9351 20.5021C21.2461 20.5799 20.546 20.6799 19.8681 20.8022H19.6569C19.2346 20.8688 18.8346 20.9466 18.4234 21.0466C17.7233 21.1911 17.0343 21.3467 16.3453 21.5245C15.6563 21.7023 14.9895 21.9023 14.3227 22.1135C13.8337 22.2542 13.3559 22.4098 12.8892 22.5802C12.2779 22.7914 11.6667 23.0247 11.0777 23.2581C10.2308 23.6028 9.32508 23.7802 8.41065 23.7804C7.10594 23.7727 5.82609 23.4228 4.69894 22.7656C3.57179 22.1084 2.63681 21.167 1.98738 20.0354L1.83179 19.7687C1.92069 19.3464 3.95436 10.3894 3.95436 10.3894H4.00991L4.15438 10.2782L4.2544 10.2004C5.27678 9.44475 8.58846 7.01102 8.93296 6.86655C11.3466 5.45988 13.8744 4.25915 16.4897 3.27708C17.9715 2.72143 19.4532 2.23247 20.9349 1.81017L22.5463 1.39899L24.2243 1.02116C25.9476 0.677792 27.6871 0.421865 29.4363 0.254364C30.0253 0.187686 30.6143 0.143235 31.2144 0.0987836C31.8145 0.0543319 32.4145 0.032104 33.0146 0.00987815C33.6147 -0.0123477 34.226 0.00987815 34.8372 0.00987815C44.661 0.00987815 55.4405 2.6881 66.5868 9.12248C70.9319 11.634 74.8437 14.0677 78.4443 16.5459C78.8888 16.846 79.3222 17.146 79.7445 17.4572C80.8558 18.2573 81.9671 19.0797 83.0784 19.902L84.5342 21.0133C85.6455 21.8579 86.6567 22.7136 87.6791 23.6026C88.0903 23.9471 88.4793 24.2916 88.8793 24.6472L89.4794 25.1806L90.7463 26.3475C93.2794 28.7213 95.6797 31.2329 97.9364 33.871L98.8032 34.9045C99.2477 35.4268 99.6811 36.0158 100.114 36.5047C100.792 37.3382 101.47 38.205 102.137 39.094L103.304 40.6498C104.126 41.7611 104.949 42.8724 105.771 44.1393C106.171 44.7283 106.582 45.3173 106.982 45.9285C107.382 46.5397 107.794 47.1509 108.205 47.7843C108.616 48.4178 109.027 49.0512 109.427 49.6958C110.249 50.996 111.083 52.3295 111.916 53.7186C112.383 54.4826 112.636 55.3575 112.65 56.2524Z" fill="black"/>
</g>
<path d="M56.863 103.305C56.863 109.861 52.2401 112.562 46.5391 109.25C40.8382 105.938 36.2041 97.9592 36.2041 91.347C36.2041 88.0131 37.3821 85.7016 39.2602 84.7348C41.1382 83.768 43.7053 83.768 46.5391 85.3905C49.5521 87.3493 52.0583 89.9938 53.8528 93.1075C55.6472 96.2212 56.6787 99.7155 56.863 103.305Z" fill="#FFDE76"/>
<path d="M65.4865 79.9562C61.0045 73.4692 55.0727 68.1157 48.1615 64.3203C44.951 62.3943 41.4201 61.0617 37.7376 60.3863C36.677 60.1995 35.5869 60.275 34.5622 60.6063C33.5375 60.9375 32.6094 61.5144 31.8588 62.2866L31.7922 62.3644C30.8683 63.3238 30.2602 64.5429 30.0496 65.8581C29.839 67.1732 30.036 68.5213 30.6142 69.7212C30.6905 69.8923 30.7758 70.0592 30.8698 70.2213C31.4317 71.1947 32.2425 72.001 33.2189 72.5576C34.1954 73.1142 35.3024 73.401 36.4263 73.3884C36.6559 73.3884 36.8893 73.3884 37.1264 73.3884H37.5931H38.2265C39.5761 73.3985 40.9168 73.6082 42.205 74.0108C42.5606 74.1108 42.9162 74.233 43.3163 74.3664C44.4704 74.7879 45.5858 75.3084 46.6502 75.9222C46.9835 76.1111 47.3058 76.3112 47.6281 76.5223C47.9503 76.7334 48.2393 76.9112 48.5282 77.1224C48.8171 77.3335 49.1394 77.5447 49.4395 77.778C49.7395 78.0114 50.0507 78.2448 50.3507 78.4893C52.987 80.6544 55.3261 83.1579 57.3074 85.9349C58.1132 86.969 59.2869 87.6523 60.5839 87.8425C61.881 88.0326 63.2014 87.715 64.2701 86.9558C65.3387 86.1965 66.0732 85.0542 66.3206 83.7668C66.5679 82.4794 66.3089 81.1463 65.5977 80.0451L65.4865 79.9562Z" fill="#FFDE76"/>
<path d="M83.334 69.9991C74.1325 55.13 64.7088 45.4506 50.7287 37.1937C45.9686 34.353 40.6305 32.6194 35.1096 32.1212C29.5887 31.6229 24.0264 32.3729 18.8346 34.3155C18.3601 34.4851 17.9085 34.7128 17.4899 34.9934L17.3566 35.1045C16.1088 36.0007 15.2285 37.3191 14.879 38.815C14.5295 40.311 14.7347 41.883 15.4563 43.2392L15.5785 43.4503C16.1422 44.4222 16.9533 45.2273 17.9294 45.7836C18.9055 46.34 20.0115 46.6277 21.135 46.6175C21.8689 46.6147 22.5973 46.4908 23.2909 46.2508C23.5687 46.1619 23.8577 46.0619 24.1466 45.9841C24.4355 45.9063 24.8356 45.784 25.1801 45.6951L26.1469 45.4618L26.9804 45.3062L27.536 45.2173L28.1584 45.1284C28.4584 45.1284 28.7473 45.0506 29.0474 45.0284L30.2365 44.9506H31.2922C36.3708 44.9506 41.9829 46.4619 48.1727 50.0292L50.1619 51.2183C50.6954 51.5405 51.2733 51.8739 51.7511 52.2184L52.7735 52.8852C53.5514 53.3964 54.3071 53.9298 55.0517 54.4632C55.4739 54.7633 55.8851 55.0633 56.2852 55.3745C56.3627 55.4203 56.4338 55.4764 56.4963 55.5412C56.9631 55.8746 57.4187 56.2302 57.8743 56.6525C58.8856 57.4415 59.8747 58.2638 60.8415 59.1418C60.8415 59.1418 60.8415 59.1418 60.897 59.1418C66.272 63.9241 70.9481 69.4382 74.7882 75.5222C75.3753 76.4327 76.2464 77.1241 77.2664 77.4892C77.9149 77.7311 78.6057 77.8391 79.2971 77.8066C79.9886 77.7742 80.6662 77.6019 81.2892 77.3003L81.5893 77.1336C82.1796 76.7895 82.6949 76.3303 83.1043 75.7833C83.5138 75.2363 83.8092 74.6126 83.973 73.9492C84.1367 73.2858 84.1656 72.5963 84.0577 71.9215C83.9499 71.2468 83.7075 70.6006 83.3451 70.0213L83.334 69.9991Z" fill="#FFDE76"/>
<path d="M100.97 59.9752C87.6345 37.7493 76.5216 27.4476 55.6293 15.3568C37.0818 4.69947 19.5456 4.36608 5.76561 9.4558C5.22522 9.66105 4.70754 9.92175 4.2209 10.2337L4.12088 10.3115L3.97641 10.4226H3.92086C2.51618 11.4808 1.53212 13.0027 1.14351 14.7179C0.754896 16.4331 0.986887 18.2305 1.79829 19.7908C1.79829 19.8908 1.89832 19.9686 1.95388 20.0686C2.60331 21.2003 3.53829 22.1417 4.66544 22.7989C5.79258 23.456 7.07244 23.806 8.37715 23.8137C9.29157 23.8135 10.1973 23.6361 11.0442 23.2914C11.6332 23.058 12.2444 22.8247 12.8557 22.6135C13.4669 22.4024 13.8002 22.2912 14.2892 22.1468C14.956 21.9356 15.6228 21.7356 16.3118 21.5578C17.0008 21.38 17.6898 21.2244 18.3899 21.0799C18.801 20.9799 19.2011 20.9021 19.6234 20.8354H19.8346C20.5125 20.7132 21.2126 20.6132 21.9016 20.5354C24.6571 20.1771 27.4407 20.084 30.214 20.2576C37.9338 20.845 45.4301 23.1212 52.1731 26.9253L53.829 27.8588C71.3874 37.9938 81.0668 46.7508 92.2797 65.2427C93.0021 66.3315 94.1172 67.0992 95.3921 67.3855C96.667 67.6718 98.0033 67.4546 99.1219 66.7791C100.24 66.1037 101.055 65.0223 101.395 63.7606C101.735 62.499 101.575 61.1548 100.948 60.0085L100.97 59.9752Z" fill="#FFDE76"/>
</svg>
