<svg width="400" height="453" viewBox="0 0 400 453" fill="none" xmlns="http://www.w3.org/2000/svg">
<path d="M362.273 101.579V204.481H333.193V101.579C333.193 62.4478 303.472 30.6287 266.91 30.6287C230.348 30.6287 200.626 62.4478 200.626 101.579V204.481H171.547V101.579C171.547 45.5368 214.325 0 266.91 0C319.495 0 362.273 45.5368 362.273 101.579Z" fill="#455A64"/>
<path d="M171.547 128.334L200.626 129.506V204.481H171.547V128.334Z" fill="#263238"/>
<path d="M362.273 136.1V204.481H333.193V134.91L362.273 136.1Z" fill="#263238"/>
<path d="M399.552 145.888H134.286V386.553H399.552V145.888Z" fill="#FFC727"/>
<path opacity="0.1" d="M399.534 145.888H266.91V386.553H399.534V145.888Z" fill="black"/>
<path d="M278.133 275.035L289.225 327.695H242.101L253.211 275.035C248.867 272.327 245.522 268.279 243.683 263.502C241.844 258.725 241.611 253.479 243.019 248.557C244.427 243.636 247.399 239.306 251.486 236.225C255.574 233.143 260.553 231.476 265.672 231.476C270.791 231.476 275.771 233.143 279.858 236.225C283.945 239.306 286.918 243.636 288.326 248.557C289.733 253.479 289.5 258.725 287.661 263.502C285.823 268.279 282.478 272.327 278.133 275.035Z" fill="#263238"/>
<path d="M189.856 274.94C189.856 274.94 175.987 385.967 153.2 410.984C125.84 440.951 105.963 436.568 94.9282 452.024C83.8936 436.549 64.035 440.951 36.6373 410.965C13.85 385.967 0 274.921 0 274.921C60.0481 245.785 94.966 213.116 94.966 213.116C96.0052 214.136 130.734 246.258 189.856 274.94Z" fill="#EBEBEB"/>
<path d="M94.966 213.135V452.005C83.9314 436.53 64.0728 440.932 36.6751 410.946C13.8878 385.948 0.0378418 274.902 0.0378418 274.902C60.0482 245.785 94.966 213.116 94.966 213.116V213.135Z" fill="#DBDBDB"/>
<path d="M175.137 283.896C175.137 283.896 163.422 377.672 144.169 398.796C121.022 424.154 104.243 420.431 94.9094 433.488C85.5753 420.431 68.7966 424.154 45.6692 398.796C26.4152 377.672 14.7192 283.896 14.7192 283.896C65.4522 259.333 94.9094 231.652 94.9094 231.652C94.9094 231.652 124.404 259.257 175.137 283.896Z" fill="#DBDBDB"/>
<path d="M14.738 283.896C14.738 283.896 26.4529 377.672 45.7068 398.797C68.8154 424.135 85.5185 420.431 94.966 433.45V231.69C94.0401 232.521 64.7341 259.635 14.738 283.896Z" fill="#C7C7C7"/>
<path d="M121.221 358.866C135.743 344.344 135.743 320.8 121.221 306.278C106.7 291.757 83.1553 291.757 68.6336 306.278C54.1118 320.8 54.1118 344.344 68.6336 358.866C83.1553 373.388 106.7 373.388 121.221 358.866Z" fill="#FFC727"/>
<path d="M90.6956 356.736L74.1248 339.504L80.2656 333.59L89.3918 343.094L109.08 312.9L116.223 317.548L90.6956 356.736Z" fill="white"/>
</svg>
